<svg width="20" height="20" viewBox="0 0 20 20" fill="none" xmlns="http://www.w3.org/2000/svg">
<path d="M17.0712 2.92878C13.1656 -0.976259 6.8344 -0.976259 2.92878 2.92878C-0.976259 6.8344 -0.976259 13.1656 2.92878 17.0712C6.83381 20.9763 13.1662 20.9763 17.0712 17.0712C20.9763 13.1662 20.9763 6.83377 17.0712 2.92878ZM5.35983 5.35979C7.48448 3.23514 10.712 2.88116 13.212 4.28436L4.2844 13.212C2.8812 10.712 3.23518 7.48444 5.35983 5.35979ZM14.6408 14.6402C12.5162 16.7648 9.28807 17.1194 6.78807 15.7162L15.7163 6.78799C17.1195 9.28799 16.7649 12.5162 14.6408 14.6402Z" fill="white"/>
</svg>
