<svg width="21" height="21" viewBox="0 0 21 21" fill="none" xmlns="http://www.w3.org/2000/svg">
<path d="M17.5868 3.74128C13.6812 -0.163759 7.35002 -0.163759 3.4444 3.74128C-0.460634 7.6469 -0.460634 13.9781 3.4444 17.8837C7.34944 21.7888 13.6818 21.7888 17.5868 17.8837C21.4919 13.9787 21.4919 7.64627 17.5868 3.74128ZM5.87545 6.17229C8.0001 4.04764 11.2276 3.69366 13.7276 5.09686L4.80003 14.0245C3.39682 11.5245 3.75081 8.29694 5.87545 6.17229ZM15.1565 15.4527C13.0318 17.5773 9.80369 17.9319 7.30369 16.5287L16.2319 7.60049C17.6351 10.1005 17.2805 13.3287 15.1565 15.4527Z" fill="#6C0D0D"/>
</svg>
