<svg width="68" height="53" viewBox="0 0 68 53" fill="none" xmlns="http://www.w3.org/2000/svg">
<path d="M64.9287 3.45583C64.744 3.04432 64.4182 2.69898 64.0031 2.50291C63.142 2.09358 62.1582 1.74825 61.0605 1.44125C59.4129 0.987165 57.5057 0.631049 55.4057 0.381631C53.3055 0.136443 51.0125 0 48.6073 0C45.399 0 42.392 0.238775 39.7731 0.66516C38.4616 0.878421 37.2518 1.13848 36.1518 1.44125C35.3757 1.65874 34.6598 1.89533 33.9999 2.1618C33.3399 1.89533 32.6241 1.6586 31.8458 1.44125C30.2001 0.987165 28.293 0.631049 26.1929 0.381631C24.0907 0.136443 21.7976 0 19.3925 0C16.1843 0 13.1773 0.238775 10.5583 0.66516C9.25119 0.878284 8.03728 1.13834 6.93945 1.44111C5.84163 1.74811 4.85802 2.09345 3.99473 2.50278C3.5797 2.69898 3.2559 3.04432 3.07129 3.45569C1.63532 3.82464 0 4.51531 0 5.74125C0 6.50656 0 41.274 0 41.274C0 44.6915 2.69782 47.463 6.02424 47.463H30.302V47.7848C30.302 48.4564 30.8291 49 31.4807 49H36.5193C37.1709 49 37.698 48.4564 37.698 47.7848V47.463H61.9758C65.3023 47.463 68 44.6914 68 41.274C68 41.274 68 6.50656 68 5.74125C68 4.51531 66.3648 3.82464 64.9287 3.45583ZM32.1115 40.434C32.0223 40.4083 31.9372 40.3806 31.8459 40.3529C30.2002 39.8966 28.2932 39.5427 26.193 39.2933C24.0909 39.0481 21.7977 38.9117 19.3926 38.9117C16.1844 38.9117 13.1774 39.1526 10.5585 39.5768C9.25105 39.7901 8.03715 40.0501 6.93932 40.3529C6.84795 40.3806 6.76295 40.4083 6.6737 40.434V5.58134C7.05553 5.4449 7.4727 5.31487 7.92293 5.18907C9.33818 4.79679 11.0772 4.46633 13.0217 4.2382C14.9704 4.00788 17.1244 3.88222 19.3926 3.88222C22.4162 3.88222 25.2426 4.11035 27.6354 4.49839C28.8328 4.69241 29.9201 4.92901 30.8623 5.1892C31.3147 5.315 31.7318 5.44503 32.1115 5.58148V40.434ZM61.324 40.434C61.2348 40.4083 61.1518 40.3806 61.0605 40.3529C59.4129 39.8966 57.5057 39.5427 55.4057 39.2933C53.3055 39.0481 51.0125 38.9117 48.6073 38.9117C45.399 38.9117 42.392 39.1526 39.7731 39.5768C38.4616 39.7901 37.2518 40.0501 36.1518 40.3529C36.0626 40.3806 35.9774 40.4083 35.8883 40.434V5.58134C36.268 5.4449 36.6852 5.31487 37.1376 5.18907C38.5508 4.79679 40.2877 4.46633 42.2342 4.2382C44.1829 4.00788 46.3389 3.88222 48.6071 3.88222C51.6286 3.88222 54.455 4.11035 56.8499 4.49839C58.0473 4.69241 59.1326 4.92901 60.0768 5.1892C60.5272 5.315 60.9442 5.44503 61.324 5.58148V40.434Z" fill="black"/>
<path d="M15.465 11.325H12.66V12.375H14.4V16.635H15.465V11.325ZM15.465 16.185H14.52C13.86 16.845 13.11 17.535 12.495 18.015L13.08 19.08C13.77 18.405 14.4 17.76 15.015 17.115C15.975 18.3 17.355 18.84 19.35 18.915C21.09 18.975 24.405 18.945 26.13 18.87C26.19 18.555 26.355 18.045 26.49 17.805C24.63 17.925 21.06 17.97 19.335 17.895C17.55 17.82 16.2 17.31 15.465 16.185ZM12.705 6.315C13.53 7.095 14.4 8.205 14.76 8.955L15.705 8.355C15.33 7.59 14.43 6.525 13.59 5.76L12.705 6.315ZM16.095 7.455V8.415H21.24V7.455H16.095ZM18.015 9.99V10.95H20.295V9.99H18.015ZM18.15 5.415V8.01H19.2V5.415H18.15ZM19.89 9.99V10.2C19.8 14.31 19.68 15.72 19.47 16.035C19.38 16.185 19.275 16.215 19.08 16.215C18.9 16.215 18.495 16.215 18.03 16.17C18.18 16.41 18.27 16.815 18.3 17.1C18.765 17.115 19.245 17.13 19.53 17.085C19.89 17.055 20.115 16.95 20.325 16.65C20.655 16.2 20.76 14.76 20.865 10.455C20.865 10.32 20.88 9.99 20.88 9.99H19.89ZM21.93 7.035V8.01H26.25V7.035H21.93ZM21.27 12.51V13.44H26.325V12.51H21.27ZM21.78 9.315V10.2H25.365V9.315H21.78ZM22.35 5.355C22.035 6.765 21.465 8.115 20.67 9.03C20.91 9.165 21.315 9.48 21.48 9.645C22.29 8.655 22.95 7.14 23.325 5.565L22.35 5.355ZM23.31 11.25V15.99C23.31 16.14 23.265 16.185 23.085 16.185C22.905 16.185 22.335 16.185 21.705 16.17C21.855 16.455 22.005 16.845 22.05 17.13C22.89 17.13 23.46 17.115 23.82 16.95C24.195 16.785 24.285 16.5 24.285 16.005V11.25H23.31ZM25.065 9.315V9.51C24.735 10.14 24.06 11.01 23.475 11.535C23.64 11.655 23.91 11.94 24.06 12.12C24.75 11.52 25.575 10.575 26.115 9.72L25.485 9.255L25.29 9.315H25.065ZM17.505 7.89V10.65C17.505 12.405 17.325 14.7 15.915 16.395C16.14 16.53 16.47 16.845 16.635 17.04C18.21 15.21 18.45 12.66 18.45 10.665V7.89H17.505ZM13.77 25.92V26.715H20.46V25.92H13.77ZM16.755 24.33V25.125H20.715V24.33H16.755ZM14.58 30.36V31.125H20.88V30.36H14.58ZM16.23 23.4V26.28H17.28V23.4H16.23ZM13.335 25.92V30.12C13.335 31.995 13.26 34.56 12.405 36.405C12.63 36.51 13.035 36.81 13.2 37.005C14.145 35.055 14.295 32.115 14.295 30.12V25.92H13.335ZM14.625 27.915L14.715 28.575L19.545 28.11L19.47 27.435L14.625 27.915ZM20.16 25.92V26.07C20.055 26.715 19.89 27.495 19.725 27.99L20.55 28.2C20.76 27.645 20.985 26.775 21.15 26.025L20.475 25.875L20.31 25.92H20.16ZM16.185 26.7V28.8C16.185 29.625 16.455 29.805 17.49 29.805C17.7 29.805 19.08 29.805 19.29 29.805C19.995 29.805 20.25 29.595 20.325 28.785C20.085 28.74 19.785 28.65 19.605 28.53C19.575 29.07 19.5 29.145 19.17 29.145C18.9 29.145 17.775 29.145 17.565 29.145C17.13 29.145 17.04 29.1 17.04 28.815V26.7H16.185ZM14.34 36.15L14.49 37.035C16.17 36.84 18.585 36.525 20.895 36.24L20.865 35.4C18.45 35.7 15.945 35.985 14.34 36.15ZM15.705 34.32C15.915 34.785 16.095 35.415 16.14 35.805L16.995 35.625C16.935 35.235 16.725 34.62 16.5 34.155L15.705 34.32ZM18.645 34.08C18.54 34.545 18.3 35.235 18.12 35.7L18.93 35.865C19.125 35.445 19.35 34.845 19.59 34.26L18.645 34.08ZM15.99 32.385H19.35V33.435H15.99V32.385ZM15.105 31.755V34.065H20.28V31.755H15.105ZM20.52 27.885L20.655 28.89L26.37 28.14L26.235 27.15L20.52 27.885ZM23.73 24.12C24.405 24.885 25.125 25.95 25.41 26.655L26.265 26.145C25.98 25.455 25.245 24.405 24.555 23.67L23.73 24.12ZM25.365 29.01C24.495 31.995 22.545 34.98 20.19 36.33C20.475 36.525 20.79 36.84 20.985 37.095C23.34 35.61 25.29 32.535 26.22 29.475L25.365 29.01ZM21.945 23.475C22.17 31.155 22.89 37.11 25.29 37.2C25.86 37.215 26.4 36.57 26.7 34.23C26.505 34.125 26.085 33.855 25.89 33.63C25.785 35.085 25.575 35.91 25.29 35.895C23.925 35.805 23.115 30.165 23.01 23.475H21.945Z" fill="black"/>
<path d="M49.2503 11.4381H53.5403V13.8231H49.2503V11.4381ZM48.2153 10.4481V14.8131H54.6203V10.4481H48.2153ZM51.8903 14.5581V18.6531C51.8903 19.7481 52.1453 20.0631 53.1953 20.0631C53.3903 20.0631 54.2453 20.0631 54.4553 20.0631C55.3703 20.0631 55.6403 19.5681 55.7303 17.5431C55.4303 17.4681 54.9953 17.2881 54.7703 17.0931C54.7253 18.8181 54.6653 19.0581 54.3353 19.0581C54.1403 19.0581 53.4803 19.0581 53.3303 19.0581C53.0303 19.0581 52.9703 18.9981 52.9703 18.6531V14.5581H51.8903ZM49.4753 14.6781C49.3253 16.9281 48.8753 18.4581 46.6103 19.2981C46.8353 19.4931 47.1503 19.9131 47.2703 20.1681C49.8053 19.1481 50.3903 17.3331 50.5853 14.6781H49.4753ZM49.5353 6.83312V7.86812H53.1053V6.83312H49.5353ZM48.8303 7.98812C48.5003 9.00812 47.7503 10.2381 46.8953 11.0181C47.1503 11.1531 47.5403 11.4531 47.7503 11.6481C48.6503 10.8081 49.4603 9.45812 49.9403 8.27312L48.8303 7.98812ZM52.2053 6.83312V7.40312H52.4603C53.0003 8.91812 53.9153 10.4481 54.8603 11.4081C55.0853 11.1681 55.5203 10.8381 55.8053 10.6731C54.8753 9.83312 53.8853 8.31812 53.3903 6.83312H52.2053ZM42.4703 10.8981V11.7981H46.8653V10.8981H42.4703ZM42.5153 6.89312V7.79312H46.8053V6.89312H42.5153ZM42.4703 12.9081V13.8081H46.8653V12.9081H42.4703ZM41.7653 8.85812V9.78812H47.3603V8.85812H41.7653ZM42.9653 14.9331V15.8631H45.8753V18.3681H42.9653V19.3131H46.8653V14.9331H42.9653ZM42.4553 14.9331V20.0031H43.4303V14.9331H42.4553ZM43.0103 25.2831V26.3181H46.2653V33.1881H43.0103V34.2381H47.3153V25.2831H43.0103ZM43.0253 29.1681V30.1881H46.7153V29.1681H43.0253ZM49.3553 24.9981V26.0481H54.4103V24.9981H49.3553ZM49.3553 28.6431V29.6781H54.4103V28.6431H49.3553ZM49.2653 32.3331V33.3531H54.3803V32.3331H49.2653ZM42.3953 25.2831V35.6331H43.4453V25.2831H42.3953ZM53.9903 24.9981V36.6681C53.9903 36.9381 53.9003 37.0281 53.6303 37.0431C53.3603 37.0431 52.4153 37.0581 51.4553 37.0281C51.6203 37.3281 51.8003 37.8231 51.8603 38.1231C53.1503 38.1231 53.9753 38.1081 54.4553 37.9281C54.9353 37.7331 55.1153 37.3881 55.1153 36.6831V24.9981H53.9903ZM48.6953 24.9981V30.3531C48.6953 32.6931 48.4403 35.5431 45.9053 37.4931C46.1453 37.6431 46.5653 38.0331 46.7303 38.2581C49.4303 36.1881 49.8053 32.8731 49.8053 30.3531V24.9981H48.6953Z" fill="black"/>
</svg>
