<svg width="14" height="15" viewBox="0 0 14 15" fill="none" xmlns="http://www.w3.org/2000/svg">
<g clip-path="url(#clip0_506_5080)">
<path d="M11.1524 6.232H10.8926V4.16933C10.893 3.0208 10.4555 1.97297 9.7527 1.22133C9.05117 0.467842 8.07319 -0.000468398 7.00123 3.51564e-07C5.92928 -0.000468398 4.9513 0.467842 4.24977 1.22133C3.54695 1.97297 3.10945 3.0208 3.1103 4.16933V6.232H2.8501C1.90802 6.232 1.14453 7.0505 1.14453 8.05939V13.1726C1.14453 14.1815 1.90802 15 2.8501 15H11.1523C12.0944 15 12.8579 14.1815 12.8579 13.1726V8.05939C12.8579 7.05047 12.0944 6.232 11.1524 6.232ZM4.79495 4.16933C4.79539 3.51334 5.04061 2.92787 5.44095 2.49756C5.84298 2.06818 6.38942 1.80542 7.00123 1.80542C7.61305 1.80542 8.15949 2.06818 8.56111 2.49756C8.96186 2.92787 9.20711 3.51334 9.20755 4.16933V6.232H4.79495V4.16933ZM7.49427 11.1818L7.763 13.0481H7.00123H6.23947L6.50779 11.1818C6.08396 10.979 5.78788 10.5249 5.78788 9.99574C5.78788 9.27797 6.3309 8.69569 7.00126 8.69569C7.67118 8.69569 8.21464 9.27797 8.21464 9.99574C8.21461 10.5249 7.9181 10.979 7.49427 11.1818Z" fill="white"/>
</g>
<defs>
<clipPath id="clip0_506_5080">
<rect width="14" height="15" fill="white"/>
</clipPath>
</defs>
</svg>
