<svg width="118" height="171" viewBox="0 0 118 171" fill="none" xmlns="http://www.w3.org/2000/svg">
<path d="M106.24 75.0977V83.8173C106.236 96.8778 100.942 108.678 92.3574 117.274C83.764 125.858 71.9616 131.155 58.8988 131.158C45.8363 131.155 34.034 125.858 25.4403 117.274C16.8542 108.678 11.5575 96.8778 11.5559 83.8173V75.0977H0V83.8173C0.00935156 113.689 22.3426 138.351 51.1951 142.15V170.999H66.6032V142.15C95.4554 138.351 117.785 113.689 117.796 83.8173V75.0977H106.24Z" fill="white"/>
<path d="M58.8998 113.826C75.4627 113.815 88.8976 100.381 88.9086 83.8184V30.0108C88.8976 13.4482 75.4644 0.0113555 58.8998 0C42.3352 0.0113555 28.902 13.4482 28.8906 30.0108V83.8184C28.902 100.381 42.3368 113.815 58.8998 113.826ZM40.4468 30.0108C40.4488 24.9139 42.5062 20.332 45.86 16.9691C49.2229 13.6135 53.8029 11.5599 58.9001 11.5519C63.9974 11.5595 68.577 13.6135 71.9402 16.9691C75.2937 20.332 77.3514 24.9139 77.3534 30.0108V83.8184C77.3514 88.9153 75.2941 93.4973 71.9402 96.8561C68.579 100.208 63.9974 102.265 58.9001 102.269C53.8029 102.265 49.2213 100.208 45.86 96.8561C42.5065 93.4973 40.4488 88.9153 40.4468 83.8184V30.0108Z" fill="white"/>
</svg>
