<svg width="58" height="53" viewBox="0 0 58 53" fill="none" xmlns="http://www.w3.org/2000/svg">
<path d="M49.8845 0C51.9735 0 53.9769 0.829843 55.454 2.30697C56.9312 3.7841 57.761 5.78752 57.761 7.8765V13.1275H52.51V44.6335C52.51 46.7225 51.6802 48.7259 50.203 50.203C48.7259 51.6802 46.7225 52.51 44.6335 52.51H7.8765C5.78752 52.51 3.7841 51.6802 2.30697 50.203C0.829843 48.7259 0 46.7225 0 44.6335V39.3825H42.008V44.6335C42.0081 45.2766 42.2442 45.8972 42.6715 46.3778C43.0988 46.8584 43.6877 47.1654 44.3263 47.2406L44.6335 47.259C45.2766 47.2589 45.8972 47.0228 46.3778 46.5955C46.8584 46.1682 47.1654 45.5793 47.2406 44.9407L47.259 44.6335V5.251H13.1275C12.4844 5.25108 11.8637 5.48718 11.3832 5.9145C10.9026 6.34183 10.5956 6.93066 10.5204 7.56932L10.502 7.8765V34.1315H5.251V7.8765C5.251 5.78752 6.08084 3.7841 7.55797 2.30697C9.0351 0.829843 11.0385 0 13.1275 0H49.8845Z" fill="#560412"/>
<path d="M15.465 12.325V17.635H14.4V13.375H12.66V12.325H15.465ZM15.465 17.185C16.2 18.31 17.55 18.82 19.335 18.895C21.06 18.97 24.63 18.925 26.49 18.805C26.355 19.045 26.19 19.555 26.13 19.87C24.405 19.945 21.09 19.975 19.35 19.915C17.355 19.84 15.975 19.3 15.015 18.115C14.4 18.76 13.77 19.405 13.08 20.08L12.495 19.015C13.11 18.535 13.86 17.845 14.52 17.185H15.465ZM12.705 7.315L13.59 6.76C14.43 7.525 15.33 8.59 15.705 9.355L14.76 9.955C14.4 9.205 13.53 8.095 12.705 7.315ZM16.095 8.455H21.24V9.415H16.095V8.455ZM18.015 10.99H20.295V11.95H18.015V10.99ZM18.15 6.415H19.2V9.01H18.15V6.415ZM19.89 10.99H20.88C20.88 10.99 20.865 11.32 20.865 11.455C20.76 15.76 20.655 17.2 20.325 17.65C20.115 17.95 19.89 18.055 19.53 18.085C19.245 18.13 18.765 18.115 18.3 18.1C18.27 17.815 18.18 17.41 18.03 17.17C18.495 17.215 18.9 17.215 19.08 17.215C19.275 17.215 19.38 17.185 19.47 17.035C19.68 16.72 19.8 15.31 19.89 11.2V10.99ZM21.93 8.035H26.25V9.01H21.93V8.035ZM21.27 13.51H26.325V14.44H21.27V13.51ZM21.78 10.315H25.365V11.2H21.78V10.315ZM22.35 6.355L23.325 6.565C22.95 8.14 22.29 9.655 21.48 10.645C21.315 10.48 20.91 10.165 20.67 10.03C21.465 9.115 22.035 7.765 22.35 6.355ZM23.31 12.25H24.285V17.005C24.285 17.5 24.195 17.785 23.82 17.95C23.46 18.115 22.89 18.13 22.05 18.13C22.005 17.845 21.855 17.455 21.705 17.17C22.335 17.185 22.905 17.185 23.085 17.185C23.265 17.185 23.31 17.14 23.31 16.99V12.25ZM25.065 10.315H25.29L25.485 10.255L26.115 10.72C25.575 11.575 24.75 12.52 24.06 13.12C23.91 12.94 23.64 12.655 23.475 12.535C24.06 12.01 24.735 11.14 25.065 10.51V10.315ZM17.505 8.89H18.45V11.665C18.45 13.66 18.21 16.21 16.635 18.04C16.47 17.845 16.14 17.53 15.915 17.395C17.325 15.7 17.505 13.405 17.505 11.65V8.89ZM13.77 26.92H20.46V27.715H13.77V26.92ZM16.755 25.33H20.715V26.125H16.755V25.33ZM14.58 31.36H20.88V32.125H14.58V31.36ZM16.23 24.4H17.28V27.28H16.23V24.4ZM13.335 26.92H14.295V31.12C14.295 33.115 14.145 36.055 13.2 38.005C13.035 37.81 12.63 37.51 12.405 37.405C13.26 35.56 13.335 32.995 13.335 31.12V26.92ZM14.625 28.915L19.47 28.435L19.545 29.11L14.715 29.575L14.625 28.915ZM20.16 26.92H20.31L20.475 26.875L21.15 27.025C20.985 27.775 20.76 28.645 20.55 29.2L19.725 28.99C19.89 28.495 20.055 27.715 20.16 27.07V26.92ZM16.185 27.7H17.04V29.815C17.04 30.1 17.13 30.145 17.565 30.145C17.775 30.145 18.9 30.145 19.17 30.145C19.5 30.145 19.575 30.07 19.605 29.53C19.785 29.65 20.085 29.74 20.325 29.785C20.25 30.595 19.995 30.805 19.29 30.805C19.08 30.805 17.7 30.805 17.49 30.805C16.455 30.805 16.185 30.625 16.185 29.8V27.7ZM14.34 37.15C15.945 36.985 18.45 36.7 20.865 36.4L20.895 37.24C18.585 37.525 16.17 37.84 14.49 38.035L14.34 37.15ZM15.705 35.32L16.5 35.155C16.725 35.62 16.935 36.235 16.995 36.625L16.14 36.805C16.095 36.415 15.915 35.785 15.705 35.32ZM18.645 35.08L19.59 35.26C19.35 35.845 19.125 36.445 18.93 36.865L18.12 36.7C18.3 36.235 18.54 35.545 18.645 35.08ZM15.99 33.385V34.435H19.35V33.385H15.99ZM15.105 32.755H20.28V35.065H15.105V32.755ZM20.52 28.885L26.235 28.15L26.37 29.14L20.655 29.89L20.52 28.885ZM23.73 25.12L24.555 24.67C25.245 25.405 25.98 26.455 26.265 27.145L25.41 27.655C25.125 26.95 24.405 25.885 23.73 25.12ZM25.365 30.01L26.22 30.475C25.29 33.535 23.34 36.61 20.985 38.095C20.79 37.84 20.475 37.525 20.19 37.33C22.545 35.98 24.495 32.995 25.365 30.01ZM21.945 24.475H23.01C23.115 31.165 23.925 36.805 25.29 36.895C25.575 36.91 25.785 36.085 25.89 34.63C26.085 34.855 26.505 35.125 26.7 35.23C26.4 37.57 25.86 38.215 25.29 38.2C22.89 38.11 22.17 32.155 21.945 24.475Z" fill="#560412"/>
<path d="M37.14 7.24H43.65V13.855H42.51V8.305H37.14V7.24ZM38.1 11.92H43.02V12.985H38.1V11.92ZM37.575 11.92H38.7V18.37C38.7 18.955 38.85 19.075 39.675 19.075C40.065 19.075 42.03 19.075 42.54 19.075C43.29 19.075 43.41 18.715 43.485 16.735C43.755 16.93 44.235 17.11 44.55 17.2C44.4 19.495 44.055 20.14 42.6 20.14C42.24 20.14 39.9 20.14 39.585 20.14C38.04 20.14 37.575 19.78 37.575 18.37V11.92ZM33.36 13.48H34.425V20.2H33.36V13.48ZM33.18 6.415L34.215 6.85C33.555 7.96 32.685 9.295 31.995 10.135L31.2 9.745C31.875 8.875 32.715 7.42 33.18 6.415ZM35.115 8.095L36.105 8.575C34.92 10.27 33.27 12.4 31.965 13.705L31.245 13.285C32.535 11.95 34.17 9.7 35.115 8.095ZM30.57 9.73L31.11 8.98C31.965 9.61 32.955 10.525 33.405 11.14L32.835 12.01C32.385 11.35 31.41 10.39 30.57 9.73ZM34.635 11.56L35.49 11.155C36.21 12.13 36.99 13.42 37.305 14.275L36.39 14.725C36.09 13.885 35.34 12.55 34.635 11.56ZM30.48 13.045C31.935 12.985 34.095 12.895 36.225 12.79L36.21 13.735C34.185 13.87 32.1 13.99 30.6 14.05L30.48 13.045ZM35.04 15.22L35.94 14.905C36.45 15.82 36.96 17.02 37.17 17.815L36.21 18.175C36.03 17.38 35.52 16.15 35.04 15.22ZM31.5 14.995L32.52 15.175C32.28 16.615 31.845 18.07 31.32 19.03C31.125 18.895 30.645 18.655 30.375 18.565C30.945 17.65 31.29 16.3 31.5 14.995ZM38.295 25.54H42.525V26.41H38.295V25.54ZM37.92 27.895H42.3V28.765H37.92V27.895ZM36.39 30.055H44.37V31H36.39V30.055ZM42.12 25.54H42.24L42.435 25.48L43.215 25.57C43.065 27.01 42.78 29.005 42.51 30.505L41.445 30.415C41.73 28.9 42 26.77 42.12 25.675V25.54ZM38.175 24.4L39.24 24.505C38.955 26.095 38.52 28.165 38.205 29.41L37.125 29.29C37.47 28.045 37.905 25.945 38.175 24.4ZM36.015 36.46C36.855 35.995 38.115 35.23 39.33 34.465L39.66 35.29C38.625 36.01 37.5 36.745 36.585 37.315L36.015 36.46ZM36.69 32.155L37.47 31.675C38.07 32.245 38.715 33.055 38.985 33.61L38.145 34.165C37.89 33.595 37.275 32.755 36.69 32.155ZM43.32 31.645L44.22 32.11C43.71 32.83 43.11 33.58 42.615 34.105L41.88 33.67C42.345 33.13 42.975 32.26 43.32 31.645ZM39.795 30.49H40.875V37.045C40.875 37.585 40.77 37.87 40.395 38.035C40.05 38.2 39.48 38.215 38.61 38.215C38.565 37.93 38.415 37.525 38.28 37.24C38.88 37.27 39.405 37.255 39.57 37.255C39.75 37.255 39.795 37.21 39.795 37.045V30.49ZM40.845 31.3C41.385 33.715 42.585 35.695 44.565 36.52C44.34 36.715 44.025 37.105 43.875 37.39C41.82 36.37 40.635 34.195 40.035 31.465L40.845 31.3ZM31.62 28.12H35.835V29.095H31.62V28.12ZM30.81 30.685H36.3V31.675H30.81V30.685ZM31.155 32.665L31.935 32.47C32.235 33.385 32.475 34.54 32.535 35.32L31.695 35.53C31.68 34.75 31.44 33.58 31.155 32.665ZM30.675 36.7C32.115 36.46 34.275 36.025 36.36 35.59L36.435 36.55C34.485 36.985 32.43 37.42 30.9 37.75L30.675 36.7ZM35.325 32.335L36.195 32.56C35.94 33.475 35.685 34.555 35.43 35.26L34.695 35.05C34.92 34.315 35.19 33.13 35.325 32.335ZM33.165 28.48H34.155V36.655L33.165 36.82V28.48ZM33.12 24.415H33.705V24.655H34.035V24.94C33.45 26.095 32.475 27.685 30.99 28.99C30.825 28.765 30.495 28.435 30.285 28.285C31.65 27.145 32.61 25.615 33.12 24.415ZM33.3 24.415H34.14C35.04 25.195 36.165 26.32 36.705 27.07L35.955 27.925C35.43 27.19 34.395 25.945 33.51 25.21H33.3V24.415Z" fill="#560412"/>
</svg>
