<svg width="12" height="16" viewBox="0 0 12 16" fill="none" xmlns="http://www.w3.org/2000/svg">
<path d="M10.102 7.24406H3.6849V3.83988C3.68539 3.23588 3.93264 2.69642 4.33725 2.3C4.74329 1.9045 5.29469 1.66282 5.91211 1.66237C6.52953 1.66285 7.08096 1.90453 7.48698 2.30003C7.89158 2.69645 8.13883 3.23591 8.13932 3.83991V5.20869H9.83998V3.83991C9.84047 2.78202 9.39905 1.81666 8.6898 1.12479C7.98148 0.431009 6.99391 -0.000478301 5.91211 3.97895e-07C4.83031 -0.000478301 3.84275 0.431009 3.13445 1.12476C2.42521 1.81663 1.98378 2.78199 1.98427 3.83988V7.24406H1.72218C0.77095 7.24406 0 7.99717 0 8.92698V13.6354C0 14.5648 0.77095 15.3184 1.72218 15.3184H10.102C11.0532 15.3184 11.8242 14.5648 11.8242 13.6354V8.92698C11.8242 7.99717 11.0533 7.24406 10.102 7.24406ZM6.40998 11.802L6.68113 13.5205H5.91162H5.14309L5.41425 11.802C4.98669 11.615 4.68731 11.1971 4.68731 10.71C4.68731 10.0489 5.23586 9.51228 5.91162 9.51228C6.58833 9.51228 7.13688 10.049 7.13688 10.71C7.13691 11.1971 6.83751 11.615 6.40998 11.802Z" fill="white"/>
</svg>
