<svg width="20" height="20" viewBox="0 0 20 20" fill="none" xmlns="http://www.w3.org/2000/svg">
<path d="M10 0C15.5229 0 20 4.47715 20 10C20 15.5229 15.5229 20 10 20C4.47715 20 0 15.5229 0 10C0 4.47715 4.47715 0 10 0ZM10 18.2609C14.5623 18.2609 18.2609 14.5624 18.2609 10C18.2609 5.43764 14.5624 1.73912 10 1.73912C5.43766 1.73912 1.73912 5.43764 1.73912 10C1.74455 14.5602 5.43982 18.2554 9.99947 18.2609H9.99998L10 18.2609ZM14.9826 10.8696H5.01738V9.13045H14.9826V10.8696ZM10.8696 14.9826H9.13047V5.01738H10.8696V14.9826Z" fill="white"/>
</svg>
