<svg width="34" height="34" viewBox="0 0 34 34" fill="none" xmlns="http://www.w3.org/2000/svg">
<path d="M18.335 7.82031H6.66498C4.09998 7.82031 2 9.9203 2 12.4853V29.5253C2 31.7003 3.56 32.6303 5.465 31.5653L11.36 28.2803C11.99 27.9353 13.01 27.9353 13.625 28.2803L19.52 31.5653C21.425 32.6303 22.985 31.7003 22.985 29.5253V12.4853C23 9.9203 20.9 7.82031 18.335 7.82031Z" stroke="#292D32" stroke-width="3" stroke-linecap="round" stroke-linejoin="round"/>
<path d="M23 12.4853V29.5253C23 31.7003 21.44 32.6153 19.535 31.5653L13.64 28.2803C13.01 27.9353 11.99 27.9353 11.36 28.2803L5.465 31.5653C3.56 32.6153 2 31.7003 2 29.5253V12.4853C2 9.9203 4.09999 7.82031 6.66499 7.82031H18.335C20.9 7.82031 23 9.9203 23 12.4853Z" stroke="#292D32" stroke-width="3" stroke-linecap="round" stroke-linejoin="round"/>
<path d="M32 6.66499V23.705C32 25.88 30.44 26.795 28.535 25.745L23 22.655V12.485C23 9.91999 20.9 7.82 18.335 7.82H11V6.66499C11 4.09999 13.1 2 15.665 2H27.335C29.9 2 32 4.09999 32 6.66499Z" stroke="#292D32" stroke-width="3" stroke-linecap="round" stroke-linejoin="round"/>
</svg>
