<svg width="43" height="42" viewBox="0 0 43 42" fill="none" xmlns="http://www.w3.org/2000/svg">
<path d="M34.9343 27.3743L30.8068 17.7215C30.0551 15.9544 28.9342 14.9522 27.6551 14.8863C26.3892 14.8203 25.1628 15.7038 24.2265 17.3918L21.721 21.8886C21.1935 22.838 20.4418 23.4051 19.6243 23.471C18.7934 23.5501 17.9627 23.115 17.2901 22.2578L17 21.8886C16.0637 20.7149 14.9033 20.1479 13.7164 20.2666C12.5296 20.3853 11.5142 21.2028 10.8417 22.5347L8.56034 27.0842C7.74275 28.7326 7.82187 30.6447 8.78452 32.2008C9.74717 33.7568 11.4219 34.6931 13.2549 34.6931H30.0815C31.8486 34.6931 33.4969 33.8096 34.4728 32.3326C35.475 30.8557 35.6332 28.9963 34.9343 27.3743Z" fill="#3D2E96"/>
<path d="M15.09 16.2503C17.5517 16.2503 19.5472 14.2548 19.5472 11.7931C19.5472 9.3315 17.5517 7.33594 15.09 7.33594C12.6284 7.33594 10.6328 9.3315 10.6328 11.7931C10.6328 14.2548 12.6284 16.2503 15.09 16.2503Z" fill="#3D2E96"/>
<path d="M15.65 39.696H27.35C37.1 39.696 41 35.9264 41 26.5024V15.1936C41 5.7696 37.1 2 27.35 2H15.65C5.9 2 2 5.7696 2 15.1936V26.5024C2 35.9264 5.9 39.696 15.65 39.696Z" stroke="#3D2E96" stroke-width="3" stroke-linecap="round" stroke-linejoin="round"/>
</svg>
