<svg width="45" height="45" viewBox="0 0 45 45" fill="none" xmlns="http://www.w3.org/2000/svg">
<path d="M18.314 28.2558H10.3605C3.20233 28.2558 0 25.0535 0 17.8955V10.3604C0 3.20222 3.20233 0 10.3605 0H17.8954C25.0535 0 28.2558 3.20222 28.2558 10.3604V18.314C28.2558 19.1721 27.5651 19.8628 26.707 19.8837C21.6837 19.9674 19.9674 21.7047 19.8837 26.707C19.8628 27.5651 19.1721 28.2558 18.314 28.2558ZM10.3605 3.13954C4.96047 3.13954 3.13954 4.96036 3.13954 10.3604V17.8955C3.13954 23.2954 4.96047 25.1163 10.3605 25.1163H16.8279C17.3302 20.0093 20.0093 17.3513 25.1163 16.828V10.3604C25.1163 4.96036 23.2954 3.13954 17.8954 3.13954H10.3605Z" fill="#3D2E96"/>
<path d="M8.26552 11.2616C7.78413 11.2616 7.2818 11.0315 6.98878 10.592C6.48645 9.88034 6.65389 8.89654 7.36552 8.39421C8.99808 7.24305 11.1957 7.22208 12.8492 8.35231C13.5609 8.83371 13.7492 9.81751 13.2679 10.5291C12.7865 11.2408 11.8027 11.429 11.0911 10.9476C10.526 10.5709 9.7725 10.5709 9.20738 10.9686C8.89343 11.1779 8.57947 11.2616 8.26552 11.2616Z" fill="#3D2E96"/>
<path d="M16.6366 11.2616C16.1552 11.2616 15.6529 11.0315 15.3599 10.592C14.8575 9.88034 15.025 8.89654 15.7366 8.39421C17.3692 7.24305 19.5668 7.22208 21.2203 8.35231C21.9319 8.83371 22.1203 9.81751 21.6389 10.5291C21.1575 11.2408 20.1738 11.429 19.4622 10.9476C18.897 10.5709 18.1436 10.5709 17.5785 10.9686C17.2645 11.1779 16.9506 11.2616 16.6366 11.2616Z" fill="#3D2E96"/>
<path d="M14.466 22.8526H9.61016C8.12411 22.8526 6.91016 21.6385 6.91016 20.1524C6.91016 16.1757 10.1543 12.9316 14.1311 12.9316C15.7636 12.9316 17.3753 13.4965 18.6521 14.5221C19.3218 15.0663 19.4474 16.0501 18.9032 16.7199C18.359 17.3896 17.3753 17.4943 16.7055 16.971C15.9729 16.385 15.0939 16.0712 14.152 16.0712C12.059 16.0712 10.3218 17.6619 10.0916 19.7131H14.4869C15.345 19.7131 16.0567 20.4247 16.0567 21.2828C16.0567 22.141 15.3241 22.8526 14.466 22.8526Z" fill="#3D2E96"/>
<path d="M34.6414 45H27.1066C19.9484 45 16.7461 41.7976 16.7461 34.6395V26.686C16.8717 20.0093 20.0112 16.8697 26.667 16.7441H34.6414C41.7996 16.7441 45.0019 19.9465 45.0019 27.1046V34.6395C45.0019 41.7976 41.7996 45 34.6414 45ZM26.688 19.8837C21.7066 19.9674 19.9694 21.7046 19.8856 26.7069V34.6395C19.8856 40.0395 21.7066 41.8604 27.1066 41.8604H34.6414C40.0414 41.8604 41.8624 40.0395 41.8624 34.6395V27.1046C41.8624 21.7046 40.0414 19.8837 34.6414 19.8837H26.688Z" fill="#3D2E96"/>
<path d="M26.8744 28.0086C25.8907 28.0086 24.9279 27.7156 24.1116 27.1295C23.4 26.6272 23.2325 25.6437 23.7349 24.9321C24.2372 24.2204 25.2209 24.0528 25.9325 24.5551C26.4977 24.9528 27.2511 24.9528 27.8163 24.576C28.5279 24.0946 29.5116 24.2621 29.993 24.9946C30.4744 25.7063 30.307 26.69 29.5744 27.1714C28.7581 27.7365 27.8163 28.0086 26.8744 28.0086Z" fill="#3D2E96"/>
<path d="M35.2455 28.0086C34.2618 28.0086 33.299 27.7156 32.4827 27.1295C31.7711 26.6272 31.6036 25.6437 32.106 24.9321C32.6083 24.2204 33.592 24.0528 34.3036 24.5551C34.8688 24.9528 35.6222 24.9528 36.1874 24.576C36.899 24.0946 37.8827 24.2621 38.3641 24.9946C38.8455 25.7063 38.678 26.69 37.9455 27.1714C37.1292 27.7365 36.1874 28.0086 35.2455 28.0086Z" fill="#3D2E96"/>
<path d="M30.8733 39.5967C26.8965 39.5967 23.6523 36.3523 23.6523 32.3756C23.6523 30.8895 24.8663 29.6758 26.3523 29.6758H35.3942C36.8802 29.6758 38.0942 30.8895 38.0942 32.3756C38.0942 36.3523 34.85 39.5967 30.8733 39.5967ZM26.8128 32.8153C27.0221 34.8665 28.7593 36.4572 30.8733 36.4572C32.9872 36.4572 34.7035 34.8665 34.9337 32.8153H26.8128Z" fill="#3D2E96"/>
</svg>
