<svg width="40" height="41" viewBox="0 0 40 41" fill="none" xmlns="http://www.w3.org/2000/svg">
<path d="M10.0098 13.013C10.0098 18.5185 14.5143 23.023 20.0198 23.023C25.5253 23.023 30.0298 18.5185 30.0298 13.013V10.01C30.0298 4.5045 25.5253 0 20.0198 0C14.5143 0 10.0098 4.5045 10.0098 10.01V13.013Z" fill="white"/>
<path d="M0 36.8366C0 38.5983 1.44144 40.0398 3.2032 40.0398H36.7968C38.5586 40.0398 40 38.5983 40 36.8366V27.5273C40 27.0468 40 26.5263 39.7598 26.286C39.019 24.5443 36.7568 23.0228 33.2533 21.7815C30.7708 26.5463 25.7457 29.7895 20 29.7895C14.2543 29.7895 9.24925 26.5463 6.74675 21.7815C3.24324 23.0428 1.001 24.5243 0.24024 26.286C-2.23741e-07 26.7665 0 27.0268 0 27.5273V36.8366Z" fill="white"/>
</svg>
