<svg width="45" height="46" viewBox="0 0 45 46" fill="none" xmlns="http://www.w3.org/2000/svg">
<path d="M11.2617 14.6396C11.2617 20.8333 16.3293 25.9009 22.523 25.9009C28.7167 25.9009 33.7842 20.8333 33.7842 14.6396V11.2613C33.7842 5.06757 28.7167 0 22.523 0C16.3293 0 11.2617 5.06757 11.2617 11.2613V14.6396Z" fill="#4B4C4D"/>
<path d="M0 41.4411C0 43.4231 1.62162 45.0448 3.6036 45.0448H41.3964C43.3784 45.0448 45 43.4231 45 41.4411V30.9682C45 30.4276 45 29.842 44.7297 29.5718C43.8964 27.6123 41.3514 25.9006 37.4099 24.5042C34.6171 29.8646 28.964 33.5132 22.5 33.5132C16.036 33.5132 10.4054 29.8646 7.59009 24.5042C3.64865 25.9231 1.12613 27.5898 0.27027 29.5718C-2.51709e-07 30.1123 0 30.4051 0 30.9682V41.4411Z" fill="#4B4C4D"/>
</svg>
