<svg width="30" height="27" viewBox="0 0 30 27" fill="none" xmlns="http://www.w3.org/2000/svg">
<path d="M14.7835 17.1956C15.8001 17.1956 16.775 16.7925 17.4939 16.0752C18.2127 15.3578 18.6165 14.3848 18.6165 13.3702C18.6165 13.2582 18.6114 13.1472 18.6018 13.0376L14.4502 17.1809C14.56 17.1904 14.6709 17.1956 14.7835 17.1956ZM27.4707 1.53769L26.0087 0.0799659C25.9574 0.0287626 25.8878 0 25.8152 0C25.7426 0 25.673 0.0287626 25.6216 0.0799659L21.8804 3.81478C19.8165 2.76213 17.4965 2.23581 14.9204 2.23581C8.34273 2.23581 3.43513 5.6547 0.197622 12.4925C0.0674902 12.7675 0 13.0678 0 13.372C0 13.6761 0.0674902 13.9764 0.197622 14.2514C1.49126 16.9708 3.04898 19.1505 4.87079 20.7904L1.25033 24.4022C1.19902 24.4534 1.1702 24.5229 1.1702 24.5954C1.1702 24.6678 1.19902 24.7373 1.25033 24.7885L2.71131 26.2466C2.76265 26.2978 2.83226 26.3265 2.90484 26.3265C2.97742 26.3265 3.04704 26.2978 3.09837 26.2466L27.4707 1.92432C27.4962 1.89894 27.5164 1.86881 27.5301 1.83564C27.5439 1.80247 27.551 1.76691 27.551 1.731C27.551 1.6951 27.5439 1.65954 27.5301 1.62637C27.5164 1.5932 27.4962 1.56306 27.4707 1.53769ZM8.76025 13.3702C8.76016 12.332 9.02953 11.3114 9.54214 10.4079C10.0547 9.50435 10.7931 8.74876 11.6853 8.21469C12.5775 7.68062 13.593 7.38628 14.6331 7.36034C15.6731 7.33441 16.7021 7.57776 17.6199 8.0667L15.956 9.7273C15.285 9.51286 14.5677 9.48704 13.8829 9.65266C13.1981 9.81828 12.5723 10.1689 12.074 10.6662C11.5758 11.1634 11.2244 11.788 11.0585 12.4714C10.8925 13.1548 10.9184 13.8707 11.1333 14.5404L9.46935 16.201C9.00241 15.3303 8.75879 14.3578 8.76025 13.3702Z" fill="black"/>
<path d="M29.8009 12.3701C28.5945 9.81612 27.1586 7.73358 25.4932 6.12244L20.5531 11.0885C20.9695 12.1827 21.0618 13.3747 20.8189 14.5205C20.5759 15.6663 20.008 16.7168 19.1839 17.5452C18.3598 18.3736 17.3147 18.9444 16.1748 19.1887C15.0349 19.4329 13.8491 19.3401 12.7605 18.9215L8.57031 23.1335C10.5143 24.0377 12.6764 24.4898 15.0568 24.4898C21.644 24.4898 26.5587 21.0413 29.8009 14.1443C29.9313 13.8669 29.9989 13.5639 29.9989 13.2572C29.9989 12.9504 29.9313 12.6474 29.8009 12.3701Z" fill="black"/>
</svg>
